
<svg width="24" height="24" viewBox="0 0 24 24" fill="none" xmlns="http://www.w3.org/2000/svg">
<path d="M13.4056 11.6C13.3691 12.022 13.0126 12.3514 12.5792 12.3514C12.1214 12.3514 11.7495 11.9846 11.7495 11.532C11.7495 11.0794 12.1208 10.7126 12.5785 10.7126C13.0397 10.732 13.4056 11.106 13.4056 11.564C13.4056 11.5766 13.4056 11.5886 13.4049 11.6014V11.5994L13.4056 11.6ZM9.62203 10.7134C9.15753 10.754 8.79631 11.136 8.79631 11.6014C8.79631 12.0666 9.15753 12.4486 9.61865 12.4894H9.62203C10.0832 12.47 10.4491 12.096 10.4491 11.638C10.4491 11.6254 10.4491 11.6134 10.4484 11.6006V11.6026C10.4491 11.5894 10.4498 11.574 10.4498 11.558C10.4498 11.1014 10.0845 10.7294 9.62676 10.712H9.62541L9.62203 10.7134ZM18.179 5.648V20C16.1379 18.2186 16.7901 18.8086 14.4197 16.632L14.8491 18.112H5.66088C4.74334 18.1094 4 17.3746 4 16.468C4 16.4666 4 16.4654 4 16.464V5.648C4 5.64666 4 5.64534 4 5.644C4 4.73734 4.74334 4.00267 5.66021 4H16.5174C17.435 4.00267 18.1783 4.73734 18.1783 5.644V5.648H18.179ZM15.8699 13.232C15.8416 11.526 15.4135 9.92534 14.6749 8.508L14.7033 8.568C14.0794 8.08066 13.2935 7.77134 12.4361 7.72866L12.4266 7.728L12.3132 7.856C13.0896 8.064 13.7648 8.414 14.34 8.87934L14.3306 8.872C13.3861 8.35934 12.2605 8.05734 11.0635 8.05734C10.0555 8.05734 9.09811 8.27134 8.23526 8.656L8.27847 8.63866C7.9787 8.77466 7.80046 8.872 7.80046 8.872C8.39729 8.39066 9.11161 8.028 9.89344 7.832L9.93126 7.824L9.85024 7.728C8.98334 7.77134 8.19745 8.08066 7.56551 8.574L7.57361 8.568C6.86334 9.92534 6.43529 11.526 6.40694 13.2226V13.232C6.94638 13.9726 7.81666 14.4494 8.79902 14.4494C8.82669 14.4494 8.85438 14.4486 8.88206 14.448H8.87801C8.87801 14.448 9.17778 14.088 9.42084 13.784C8.83615 13.6354 8.34598 13.2994 8.00773 12.8466L8.00301 12.84C8.12183 12.9226 8.31898 13.0294 8.33383 13.04C9.1501 13.488 10.1243 13.7514 11.1614 13.7514C11.9655 13.7514 12.7318 13.5926 13.4299 13.306L13.3908 13.32C13.7472 13.1854 14.0537 13.0266 14.3387 12.838L14.3218 12.8486C13.9666 13.3174 13.4596 13.6566 12.8743 13.7974L12.8567 13.8006C13.0997 14.1046 13.3914 14.4486 13.3914 14.4486C13.4137 14.4494 13.44 14.4494 13.4663 14.4494C14.4528 14.4494 15.3265 13.9734 15.8645 13.2406L15.8706 13.232H15.8699Z" fill="#4F4E4E"/>
</svg>
