
<svg width="24" height="24" viewBox="0 0 24 24" fill="none" xmlns="http://www.w3.org/2000/svg">
<path d="M21.5593 5.84651C21.261 5.98268 20.9543 6.0976 20.6409 6.1909C21.0119 5.75908 21.2948 5.25097 21.4675 4.69496C21.5062 4.57033 21.4661 4.43391 21.3665 4.3524C21.2671 4.27082 21.129 4.26105 21.0195 4.32781C20.354 4.73404 19.6359 5.02598 18.883 5.19669C18.1246 4.43403 17.0945 4 16.0296 4C13.7818 4 11.953 5.88194 11.953 8.19514C11.953 8.37733 11.9642 8.55851 11.9864 8.73716C9.19707 8.48513 6.60388 7.07422 4.82314 4.82627C4.75968 4.74615 4.66191 4.70296 4.56182 4.71122C4.46166 4.71929 4.37168 4.77741 4.32108 4.86674C3.95991 5.50452 3.76897 6.23396 3.76897 6.97613C3.76897 7.98698 4.11967 8.94608 4.73916 9.6955C4.55079 9.62836 4.368 9.54446 4.19354 9.44479C4.09988 9.39114 3.98558 9.39196 3.89253 9.44687C3.79942 9.50178 3.74104 9.60277 3.73859 9.71315C3.73816 9.73175 3.73816 9.75035 3.73816 9.76919C3.73816 11.2781 4.52727 12.6365 5.73372 13.3769C5.63008 13.3663 5.52649 13.3508 5.42358 13.3306C5.31748 13.3097 5.20838 13.348 5.13684 13.4313C5.06517 13.5145 5.04146 13.6305 5.07448 13.7364C5.52104 15.1712 6.67077 16.2265 8.06068 16.5483C6.90789 17.2913 5.58959 17.6806 4.20567 17.6806C3.91691 17.6806 3.62649 17.6631 3.34225 17.6285C3.20106 17.6112 3.06605 17.697 3.01796 17.8352C2.96987 17.9734 3.02084 18.1276 3.14096 18.2068C4.91882 19.3799 6.97454 20 9.08576 20C13.2362 20 15.8325 17.9859 17.2797 16.2962C19.0843 14.1893 20.1193 11.4006 20.1193 8.64519C20.1193 8.53007 20.1176 8.41383 20.1142 8.29796C20.8262 7.74592 21.4392 7.07782 21.938 6.30992C22.0138 6.1933 22.0056 6.03916 21.9178 5.93181C21.8301 5.82439 21.684 5.78965 21.5593 5.84651Z" fill="#4F4E4E"/>
</svg>
